<?xml version="1.0" ?><svg enable-background="new 0 0 500 500" id="Layer_2" version="1.1" viewBox="0 0 500 500" xml:space="preserve" xmlns="http://www.w3.org/2000/svg" xmlns:xlink="http://www.w3.org/1999/xlink"><g><path d="M360.587,208H349v-85.637c0-58.189-47.311-105.529-105.5-105.529S138,64.174,138,122.363V208h-11.492   C102.611,208,83,227.334,83,251.231v182.97C83,458.099,102.611,478,126.508,478h234.079C384.484,478,404,458.099,404,434.201   v-182.97C404,227.334,384.484,208,360.587,208z M158,122.363c0-47.161,38.339-85.529,85.5-85.529c47.161,0,85.5,38.368,85.5,85.529   V208H158V122.363z M384,434.661c0,12.89-10.449,23.339-23.339,23.339H126.339C113.449,458,103,447.551,103,434.661V251.339   c0-12.89,10.449-23.339,23.339-23.339h234.321c12.89,0,23.339,10.449,23.339,23.339V434.661z" fill="#474747"/><circle cx="169.704" cy="343.606" fill="#474747" r="19.089"/><circle cx="243.548" cy="343.606" fill="#474747" r="19.089"/><circle cx="317.391" cy="343.606" fill="#474747" r="19.089"/></g></svg>