<?xml version="1.0" encoding="iso-8859-1"?>
<!-- Generator: Adobe Illustrator 19.0.0, SVG Export Plug-In . SVG Version: 6.00 Build 0)  -->
<svg version="1.1" id="Layer_1" xmlns="http://www.w3.org/2000/svg" xmlns:xlink="http://www.w3.org/1999/xlink" x="0px" y="0px"
	 viewBox="0 0 512.002 512.002" style="enable-background:new 0 0 512.002 512.002;" xml:space="preserve">
<circle style="fill:#FFC61B;" cx="256.001" cy="256" r="256"/>
<path style="fill:#D48B07;" d="M350.178,137.511L217.656,342.35l145.973,145.973c75.971-35.254,131.746-106.661,145.224-192.14
	L350.178,137.511z"/>
<rect x="213.334" y="292.219" style="fill:#FCD088;" width="85.333" height="104.296"/>
<rect x="254.57" y="292.219" style="fill:#DDAB62;" width="44.103" height="104.296"/>
<path style="fill:#366695;" d="M357.765,365.671l-45.22-9.044l-7.992-11.666c-1.496-2.184-4.327-3.007-6.759-1.965l-41.793,47.497
	l-41.543-47.48c-2.415-1.053-5.239-0.262-6.754,1.893l-8.247,11.719l-45.22,9.044c-23.023,4.606-39.596,24.821-39.596,48.3v55.475
	C155.149,496.328,203.742,512,256.001,512s100.852-15.672,141.36-42.555V413.97C397.361,390.491,380.787,370.276,357.765,365.671z"
	/>
<path style="fill:#273B7A;" d="M357.765,365.671l-45.22-9.044l-7.992-11.666c-1.496-2.184-4.327-3.007-6.759-1.965l-41.793,47.497
	l-1.436-1.641v123.121c0.481,0.002,0.955,0.028,1.436,0.028c52.258,0,100.852-15.672,141.36-42.555v-55.475
	C397.361,390.491,380.787,370.276,357.765,365.671z"/>
<path style="fill:#FFEDB5;" d="M347.532,205.44c0.459-4.244,0.698-8.428,0.698-12.509c0-53.974-41.293-97.728-92.229-97.728
	s-92.229,43.754-92.229,97.728c0,4.08,0.24,8.264,0.698,12.509c-8.945,2.326-13.202,16.087-9.506,30.817
	c3.708,14.776,14.014,24.921,23.018,22.661c0.821-0.205,1.586-0.538,2.326-0.927c16.667,33.452,44.351,60.594,75.693,60.594
	s59.027-27.139,75.693-60.594c0.74,0.39,1.505,0.722,2.326,0.927c9.004,2.26,19.309-7.885,23.018-22.661
	C360.735,221.527,356.479,207.763,347.532,205.44z"/>
<path style="fill:#E8CF89;" d="M347.532,205.44c0.459-4.244,0.698-8.428,0.698-12.509c0-53.974-41.293-97.728-92.229-97.728
	c-0.483,0-0.957,0.031-1.436,0.038v223.303c0.479,0.012,0.957,0.038,1.436,0.038c31.342,0,59.027-27.139,75.693-60.592
	c0.74,0.39,1.505,0.721,2.326,0.927c9.004,2.26,19.309-7.885,23.018-22.661C360.735,221.527,356.479,207.763,347.532,205.44z"/>
<path style="fill:#263A7A;" d="M256.001,390.608l-43.973-51.053c-1.872-2.007-5.26-2.003-7.127,0.007l-16.994,19.299l36.664,52.707
	c3.053,4.472,10.119,4.596,13.357,0.233L256.001,390.608z"/>
<path style="fill:#121149;" d="M256.001,390.608l43.973-51.053c1.872-2.007,5.26-2.003,7.127,0.007l16.994,19.297l-36.664,52.707
	c-3.053,4.472-10.119,4.596-13.357,0.233L256.001,390.608z"/>
<path style="fill:#A2A4AA;" d="M187.907,358.936l-20.687,4.137v133.058C194.883,506.368,224.777,512,256.001,512
	s61.119-5.632,88.781-15.869V363.075l-20.687-4.137v64.586H187.907V358.936z"/>
<path style="fill:#777C87;" d="M324.095,358.936v64.586h-69.53v88.46c0.479,0.002,0.957,0.016,1.436,0.016
	c31.223,0,61.119-5.632,88.781-15.87V363.072L324.095,358.936z"/>
<path style="fill:#9B2B08;" d="M327.257,109.468c-38.224-27.191-102.429-40.081-114.066-3.879c0,0-33.901-3.6-47.838,34.047
	c-13.934,37.638,7.327,85.907,7.327,85.907s6.322-64.934,31.461-54.877c0,0,40.081,38.357,121.966,24.566
	c0,0-1.417,16.384,12.067,28.588C338.174,223.82,382.996,149.118,327.257,109.468z"/>
<path style="fill:#721D06;" d="M327.257,109.468c-20.764-14.77-49.185-25.298-72.692-26.052v110.802
	c18.623,4.213,42.425,5.916,71.542,1.014c0,0-1.417,16.384,12.067,28.588C338.174,223.82,382.996,149.118,327.257,109.468z"/>
<path style="fill:#313338;" d="M347.778,205.964l-183.639-1.065c-4.018-0.022-7.263-3.286-7.263-7.304V186.92
	c0-4.051,3.296-7.328,7.347-7.304l183.639,1.065c4.018,0.024,7.263,3.287,7.263,7.304v10.674
	C355.125,202.711,351.829,205.988,347.778,205.964z"/>
<path style="fill:#44464C;" d="M204.653,308.789c34.139-4.458,68.56-4.458,102.698,0c5.708,0.74,10.993-3.994,12.098-10.981
	c7.168-46.244,14.872-92.381,23.109-138.397c1.386-7.578-4.158-15.21-12.148-16.394c-49.43-7.342-99.39-7.342-148.82,0
	c-7.99,1.183-13.534,8.818-12.148,16.394c8.239,46.016,15.943,92.155,23.109,138.397
	C193.658,304.799,198.945,309.534,204.653,308.789z"/>
<path style="fill:#333333;" d="M330.411,143.017c-25.191-3.743-50.519-5.566-75.847-5.494v167.934
	c17.618-0.064,35.238,1.041,52.784,3.332c5.706,0.74,10.993-3.993,12.098-10.981c7.168-46.244,14.872-92.381,23.109-138.397
	C343.946,151.833,338.402,144.201,330.411,143.017z"/>
<path style="fill:#71E2EF;" d="M300.95,208.287c-29.865-3.244-60.033-3.244-89.898,0c-5.332,0.577-10.276-2.843-11.057-7.794
	c-1.029-6.732-2.058-13.464-3.088-20.196c-0.781-4.946,3.398-9.609,9.35-10.252c33.051-3.591,66.438-3.591,99.487,0
	c5.953,0.646,10.133,5.306,9.35,10.252c-1.029,6.732-2.058,13.464-3.088,20.196C311.224,205.44,306.282,208.865,300.95,208.287z"/>
<path style="fill:#38C6D9;" d="M305.744,170.046c-17.001-1.846-34.092-2.727-51.179-2.674v38.5
	c15.488-0.053,30.977,0.74,46.385,2.413c5.332,0.577,10.276-2.846,11.057-7.794c1.029-6.732,2.058-13.464,3.087-20.196
	C315.877,175.354,311.699,170.693,305.744,170.046z"/>
<g>
</g>
<g>
</g>
<g>
</g>
<g>
</g>
<g>
</g>
<g>
</g>
<g>
</g>
<g>
</g>
<g>
</g>
<g>
</g>
<g>
</g>
<g>
</g>
<g>
</g>
<g>
</g>
<g>
</g>
</svg>
