<?xml version="1.0" encoding="iso-8859-1"?>
<!-- Generator: Adobe Illustrator 19.0.0, SVG Export Plug-In . SVG Version: 6.00 Build 0)  -->
<svg version="1.1" id="Layer_1" xmlns="http://www.w3.org/2000/svg" xmlns:xlink="http://www.w3.org/1999/xlink" x="0px" y="0px"
	 viewBox="0 0 512 512" style="enable-background:new 0 0 512 512;" xml:space="preserve">
<circle style="fill:#71E2EF;" cx="256" cy="256" r="256"/>
<path style="fill:#38C6D9;" d="M225.726,439.546l69.468,69.468C417.975,490.151,512,384.057,512,256
	c0-0.681-0.021-1.358-0.026-2.038L358.86,100.848L225.726,439.546z"/>
<rect x="213.333" y="292.219" style="fill:#FCD088;" width="85.333" height="85.333"/>
<rect x="256.293" y="292.219" style="fill:#DDAB62;" width="42.379" height="85.333"/>
<path style="fill:#D9EDEC;" d="M357.764,360.5l-45.22-9.044l-7.992-11.666c-1.496-2.184-4.327-3.007-6.759-1.965L256,355.83
	l-41.543-17.987c-2.415-1.053-5.239-0.262-6.754,1.893l-8.247,11.719l-45.22,9.044c-23.024,4.606-39.596,24.821-39.596,48.3v60.647
	C155.148,496.328,203.74,512,256,512s100.852-15.672,141.36-42.555v-60.647C397.36,385.319,380.787,365.104,357.764,360.5z"/>
<path style="fill:#C7D8D7;" d="M397.36,408.798c0-23.48-16.574-43.696-39.596-48.3l-45.22-9.044l-7.992-11.666
	c-1.496-2.184-4.327-3.007-6.759-1.965l-41.503,17.88v156.289c52.148-0.057,100.638-15.717,141.072-42.549v-60.645H397.36z"/>
<path style="fill:#FFEDB5;" d="M347.531,205.44c0.459-4.244,0.698-8.428,0.698-12.509c0-53.974-41.293-97.728-92.229-97.728
	s-92.229,43.753-92.229,97.728c0,4.08,0.24,8.264,0.698,12.509c-8.945,2.326-13.202,16.087-9.506,30.817
	c3.708,14.776,14.014,24.921,23.018,22.661c0.821-0.205,1.586-0.538,2.326-0.927c16.667,33.452,44.351,60.594,75.693,60.594
	s59.027-27.139,75.693-60.594c0.74,0.39,1.505,0.722,2.326,0.927c9.004,2.26,19.309-7.885,23.018-22.661
	C360.732,221.527,356.476,207.763,347.531,205.44z"/>
<path style="fill:#E8CF89;" d="M347.531,205.44c0.459-4.244,0.698-8.428,0.698-12.509c0-53.872-41.138-97.556-91.941-97.721v223.365
	c31.223-0.167,58.79-27.236,75.405-60.585c0.74,0.39,1.505,0.722,2.326,0.927c9.004,2.26,19.309-7.885,23.018-22.661
	C360.732,221.527,356.476,207.763,347.531,205.44z"/>
<path style="fill:#494948;" d="M204.14,170.667c0,0,40.081,38.357,121.966,24.566c0,0,7.94-1.998,21.425,10.207
	c0,0,24.691-51.581,11.331-104.591c0,0-43.529,5.603-62.923-6.465c-19.394-12.067-71.111-24.997-82.747,11.205
	c0,0-37.495-4.741-47.838,34.047c-10.343,38.788-0.883,65.803-0.883,65.803S183.884,158.599,204.14,170.667z"/>
<g>
	<path style="fill:#333333;" d="M358.86,100.848c0,0-43.529,5.603-62.923-6.465c-8.809-5.482-24.288-11.124-39.65-12.276v112.509
		c18.358,3.927,41.605,5.368,69.818,0.615c0,0,7.94-1.998,21.425,10.207C347.531,205.44,372.221,153.859,358.86,100.848z"/>
	<path style="fill:#333333;" d="M267.91,511.697c30.484-1.398,59.564-8.135,86.354-19.287V359.8l-34.907-6.982L267.91,511.697z"/>
</g>
<g>
	<path style="fill:#494948;" d="M244.09,511.697c-30.484-1.398-59.564-8.135-86.354-19.287V359.8l34.907-6.982L244.09,511.697z"/>
	<path style="fill:#494948;" d="M290.245,355.924l-24.061,8.814c-0.398-1.245-1.552-2.151-2.929-2.151h-13.648
		c-1.37,0-2.52,0.9-2.924,2.136l-24.017-8.799c-4.16-1.524-8.566,1.555-8.566,5.985v30.396c0,4.429,4.406,7.509,8.566,5.985
		l24.017-8.799c0.403,1.236,1.552,2.136,2.924,2.136h13.648c1.377,0,2.529-0.907,2.929-2.151l24.061,8.814
		c4.16,1.524,8.566-1.555,8.566-5.985V361.91C298.811,357.479,294.405,354.401,290.245,355.924z"/>
</g>
<path style="fill:#333333;" d="M290.245,355.924l-24.061,8.814c-0.398-1.245-1.552-2.151-2.929-2.151h-6.968v29.041h6.968
	c1.377,0,2.529-0.907,2.929-2.151l24.061,8.814c4.16,1.524,8.566-1.555,8.566-5.985V361.91
	C298.811,357.479,294.405,354.401,290.245,355.924z"/>
<g>
	<circle style="fill:#ADADAD;" cx="256" cy="410.29" r="4.31"/>
	<circle style="fill:#ADADAD;" cx="256" cy="433.131" r="4.31"/>
	<circle style="fill:#ADADAD;" cx="256" cy="455.973" r="4.31"/>
</g>
<g>
</g>
<g>
</g>
<g>
</g>
<g>
</g>
<g>
</g>
<g>
</g>
<g>
</g>
<g>
</g>
<g>
</g>
<g>
</g>
<g>
</g>
<g>
</g>
<g>
</g>
<g>
</g>
<g>
</g>
</svg>
