<?xml version="1.0" encoding="iso-8859-1"?>
<!-- Generator: Adobe Illustrator 19.0.0, SVG Export Plug-In . SVG Version: 6.00 Build 0)  -->
<svg version="1.1" id="Layer_1" xmlns="http://www.w3.org/2000/svg" xmlns:xlink="http://www.w3.org/1999/xlink" x="0px" y="0px"
	 viewBox="0 0 512.002 512.002" style="enable-background:new 0 0 512.002 512.002;" xml:space="preserve">
<circle style="fill:#366695;" cx="256.001" cy="256" r="256"/>
<g>
	<polygon style="fill:#273B7A;" points="124.248,225.92 259.681,361.353 274.678,249.966 	"/>
	<path style="fill:#273B7A;" d="M227.987,370.209l123.409,123.409C445.532,455.79,512.001,363.663,512.001,256
		c0-2.841-0.064-5.668-0.155-8.489L420.775,157l-34.95,2.138L305.47,93.022L227.987,370.209z"/>
</g>
<rect x="213.334" y="292.219" style="fill:#FCD088;" width="85.333" height="93.522"/>
<rect x="255.432" y="292.219" style="fill:#DDAB62;" width="43.236" height="93.522"/>
<path style="fill:#DBA172;" d="M357.765,360.5l-45.22-9.044l-7.992-11.666c-1.496-2.184-4.327-3.007-6.759-1.965l-41.793,41.722
	l-41.543-41.703c-2.415-1.053-5.239-0.262-6.754,1.893l-8.247,11.719l-45.22,9.044c-23.024,4.604-39.596,24.819-39.596,48.299
	v60.647c40.508,26.883,89.1,42.555,141.36,42.555s100.852-15.672,141.36-42.555v-60.647
	C397.361,385.319,380.789,365.104,357.765,360.5z"/>
<path style="fill:#C18659;" d="M357.765,360.5l-45.22-9.044l-7.992-11.666c-1.496-2.184-4.327-3.007-6.759-1.965l-41.793,41.722
	l-0.574-0.576V511.99c0.191,0,0.381,0.01,0.574,0.01c52.258,0,100.852-15.672,141.36-42.555v-60.647
	C397.361,385.319,380.788,365.104,357.765,360.5z"/>
<path style="fill:#FFEDB5;" d="M347.532,205.44c0.459-4.244,0.698-8.428,0.698-12.509c0-53.974-41.293-97.728-92.229-97.728
	s-92.229,43.753-92.229,97.728c0,4.08,0.24,8.264,0.698,12.509c-8.945,2.326-13.202,16.087-9.506,30.817
	c3.708,14.776,14.014,24.921,23.018,22.661c0.821-0.205,1.586-0.538,2.326-0.927c16.667,33.452,44.351,60.594,75.693,60.594
	s59.027-27.139,75.693-60.594c0.74,0.39,1.505,0.722,2.326,0.927c9.004,2.26,19.309-7.885,23.018-22.661
	C360.733,221.527,356.477,207.763,347.532,205.44z"/>
<path style="fill:#E8CF89;" d="M347.532,205.44c0.459-4.244,0.698-8.428,0.698-12.509c0-53.974-41.293-97.728-92.229-97.728
	c-0.193,0-0.381,0.014-0.574,0.016v223.349c0.191,0.002,0.381,0.016,0.574,0.016c31.342,0,59.027-27.139,75.693-60.592
	c0.74,0.39,1.505,0.721,2.326,0.927c9.004,2.26,19.309-7.885,23.018-22.661C360.733,221.527,356.477,207.763,347.532,205.44z"/>
<path style="fill:#C14736;" d="M237.324,396.776l10.488,13.477v101.604c2.72,0.086,5.448,0.143,8.189,0.143s5.468-0.059,8.189-0.143
	V410.253l10.488-13.477l-18.677-17.229L237.324,396.776z"/>
<path style="fill:#940030;" d="M256.001,379.547l-0.574,0.529v131.915c0.191,0,0.381,0.01,0.574,0.01
	c2.741,0,5.468-0.059,8.189-0.143V410.255l10.488-13.477L256.001,379.547z"/>
<path style="fill:#C14736;" d="M237.324,396.776l10.488,13.477v101.604c2.531,0.079,5.068,0.126,7.614,0.134V380.076
	L237.324,396.776z"/>
<path style="fill:#FF7F4F;" d="M256.001,379.547l-43.973-51.484c-1.872-2.007-5.26-2.003-7.127,0.007l-16.994,24.828l36.664,47.176
	c3.053,4.472,10.119,4.596,13.357,0.233L256.001,379.547z"/>
<path style="fill:#E03A00;" d="M256.001,379.547l43.973-51.484c1.872-2.007,5.26-2.003,7.127,0.007l16.994,24.828l-36.664,47.176
	c-3.053,4.472-10.119,4.596-13.357,0.233L256.001,379.547z"/>
<path style="fill:#3A3A3A;" d="M190.148,221.594c22.294,5.658,45.351-1.267,65.281-11.936v-96.875
	c-91.686,0.45-101.328,107.255-88.023,113.785c13.333,6.544,14.21,32.266,14.21,32.266S186.934,240.564,190.148,221.594"/>
<path style="fill:#333333;" d="M256.001,112.773c-0.195,0-0.381,0.01-0.574,0.01v96.875c31.799-17.022,55.625-43.534,55.625-43.534
	s15.579,1.315,9.737,20.513c-5.842,19.196,9.599,72.195,9.599,72.195s0.876-25.721,14.21-32.266
	C357.932,220.02,348.228,112.773,256.001,112.773z"/>
<path style="fill:#FEE187;" d="M163.772,186.301c0,0,18.075-131.624,92.229-95.473c74.154-36.15,92.229,95.473,92.229,95.473
	H163.772z"/>
<path style="fill:#FFC61B;" d="M256.001,90.827c-0.193-0.095-0.381-0.171-0.574-0.264v95.735h92.803
	C348.23,186.301,330.156,54.677,256.001,90.827z"/>
<path style="fill:#C14736;" d="M173.129,147.394c-6.877,20.878-9.357,38.907-9.357,38.907H348.23c0,0-2.481-18.029-9.357-38.907
	H173.129z"/>
<path style="fill:#940030;" d="M338.874,147.394h-83.446v38.907h92.801C348.23,186.301,345.751,168.272,338.874,147.394z"/>
<path style="fill:#FFC61B;" d="M256.001,172.678c-70.104,0-166.931-35.207-166.931-10.454c0,14.796,26.705,73.995,67.872,82.158
	c0.467-9.083,4.305-16.224,10.43-17.815c-0.445-4.11-0.676-8.161-0.676-12.112c0-2.303,0.105-4.577,0.257-6.839
	c19.478-12.422,52.088-20.573,89.048-20.573s69.57,8.149,89.048,20.573c0.152,2.262,0.257,4.536,0.257,6.839
	c0,3.951-0.233,8.002-0.676,12.112c6.125,1.593,9.964,8.732,10.43,17.815c41.167-8.163,67.872-67.363,67.872-82.158
	C422.934,137.469,328.407,172.678,256.001,172.678z"/>
<path style="fill:#D48B07;" d="M256.001,172.678c-0.19,0-0.383-0.003-0.574-0.003v14.379c0.193,0,0.381-0.009,0.574-0.009
	c36.961,0,69.57,8.151,89.048,20.573c0.152,2.262,0.257,4.536,0.257,6.839c0,3.951-0.233,8.002-0.676,12.112
	c6.125,1.593,9.964,8.732,10.43,17.815c41.167-8.163,67.872-67.363,67.872-82.158C422.934,137.469,328.407,172.678,256.001,172.678z
	"/>
<ellipse style="fill:#FFC61B;" cx="256.001" cy="122.109" rx="11.493" ry="13.217"/>
<path style="fill:#D48B07;" d="M256.001,108.894c-0.193,0-0.383,0.022-0.574,0.034v26.367c0.191,0.01,0.381,0.033,0.574,0.033
	c6.347,0,11.493-5.918,11.493-13.217S262.348,108.894,256.001,108.894z"/>
<ellipse style="fill:#FFC61B;" cx="333.008" cy="416.323" rx="16.377" ry="18.834"/>
<g>
</g>
<g>
</g>
<g>
</g>
<g>
</g>
<g>
</g>
<g>
</g>
<g>
</g>
<g>
</g>
<g>
</g>
<g>
</g>
<g>
</g>
<g>
</g>
<g>
</g>
<g>
</g>
<g>
</g>
</svg>
