<?xml version="1.0" encoding="iso-8859-1"?>
<!-- Generator: Adobe Illustrator 19.0.0, SVG Export Plug-In . SVG Version: 6.00 Build 0)  -->
<svg version="1.1" id="Layer_1" xmlns="http://www.w3.org/2000/svg" xmlns:xlink="http://www.w3.org/1999/xlink" x="0px" y="0px"
	 viewBox="0 0 512 512" style="enable-background:new 0 0 512 512;" xml:space="preserve">
<circle style="fill:#71E2EF;" cx="256" cy="256" r="256"/>
<path style="fill:#38C6D9;" d="M199.399,379.259l123.807,123.807c95.501-25.917,168.812-105.713,185.291-204.743l-172.903-173.74
	L199.399,379.259z"/>
<rect x="213.333" y="292.219" style="fill:#FCD088;" width="85.333" height="85.333"/>
<rect x="255.431" y="292.219" style="fill:#DDAB62;" width="43.236" height="85.333"/>
<path style="fill:#239985;" d="M357.764,360.5l-45.22-9.044l-7.992-11.666c-1.496-2.184-4.327-3.007-6.759-1.965l-8.785,3.784
	c-21.064,9.075-44.941,9.054-65.988-0.06l-8.561-3.706c-2.415-1.053-5.239-0.262-6.754,1.893l-8.247,11.719l-45.22,9.044
	c-23.026,4.606-39.598,24.821-39.598,48.3v60.647C155.148,496.328,203.742,512,256,512s100.852-15.672,141.36-42.555v-60.647
	C397.36,385.319,380.788,365.104,357.764,360.5z"/>
<g>
	<path style="fill:#298E7B;" d="M357.764,360.5l-45.22-9.044l-7.992-11.666c-1.496-2.184-4.327-3.007-6.759-1.965l-8.785,3.784
		c-10.714,4.615-22.154,6.865-33.58,6.775v163.604c0.191,0,0.381,0.01,0.574,0.01c52.258,0,100.852-15.672,141.36-42.555v-60.647
		C397.36,385.319,380.787,365.104,357.764,360.5z"/>
	<path style="fill:#298E7B;" d="M154.236,360.5c-23.023,4.605-39.596,24.819-39.596,48.299v60.647
		c23.114,15.339,48.869,27.01,76.428,34.221V353.133L154.236,360.5z"/>
</g>
<path style="fill:#FFEDB5;" d="M347.531,205.44c0.459-4.244,0.698-8.428,0.698-12.509c0-53.974-41.293-97.728-92.229-97.728
	s-92.229,43.753-92.229,97.728c0,4.08,0.24,8.264,0.698,12.509c-8.945,2.326-13.202,16.087-9.506,30.817
	c3.708,14.776,14.014,24.921,23.018,22.661c0.821-0.205,1.586-0.538,2.326-0.927c16.667,33.452,44.351,60.594,75.693,60.594
	s59.027-27.139,75.693-60.594c0.74,0.39,1.505,0.722,2.326,0.927c9.004,2.26,19.309-7.885,23.018-22.661
	C360.732,221.527,356.476,207.763,347.531,205.44z"/>
<path style="fill:#E8CF89;" d="M347.531,205.44c0.459-4.244,0.698-8.428,0.698-12.509c0-53.974-41.293-97.728-92.229-97.728
	c-0.193,0-0.381,0.014-0.574,0.016v223.349c0.191,0.002,0.381,0.016,0.574,0.016c31.342,0,59.027-27.139,75.693-60.594
	c0.74,0.39,1.505,0.722,2.326,0.927c9.004,2.26,19.309-7.885,23.018-22.661C360.732,221.527,356.476,207.763,347.531,205.44z"/>
<path style="fill:#494948;" d="M162.047,189.918c0,0,1.724,18.963,6.034,30.456l8.045-0.288c0,0-2.012-15.515,14.941-31.318
	S162.047,189.918,162.047,189.918z"/>
<path style="fill:#333333;" d="M349.953,189.918c0,0-1.724,18.963-6.034,30.456l-8.045-0.288c0,0,2.012-15.515-14.941-31.318
	C303.981,172.965,349.953,189.918,349.953,189.918z"/>
<path style="fill:#239985;" d="M350.815,201.726h-189.63v-31.504c0-41.979,34.032-76.01,76.01-76.01h37.609
	c41.979,0,76.01,34.032,76.01,76.01L350.815,201.726L350.815,201.726z"/>
<path style="fill:#298E7B;" d="M350.815,170.222c0-41.979-34.032-76.01-76.01-76.01h-19.378v107.517h95.389V170.222z"/>
<g>
	<circle style="fill:#197C69;" cx="207.731" cy="404.825" r="5.746"/>
	<circle style="fill:#197C69;" cx="207.731" cy="422.064" r="5.746"/>
	<circle style="fill:#197C69;" cx="207.731" cy="439.303" r="5.746"/>
	<circle style="fill:#197C69;" cx="207.731" cy="456.542" r="5.746"/>
</g>
<g>
</g>
<g>
</g>
<g>
</g>
<g>
</g>
<g>
</g>
<g>
</g>
<g>
</g>
<g>
</g>
<g>
</g>
<g>
</g>
<g>
</g>
<g>
</g>
<g>
</g>
<g>
</g>
<g>
</g>
</svg>
