<?xml version="1.0" encoding="iso-8859-1"?>
<!-- Generator: Adobe Illustrator 19.0.0, SVG Export Plug-In . SVG Version: 6.00 Build 0)  -->
<svg version="1.1" id="Layer_1" xmlns="http://www.w3.org/2000/svg" xmlns:xlink="http://www.w3.org/1999/xlink" x="0px" y="0px"
	 viewBox="0 0 512 512" style="enable-background:new 0 0 512 512;" xml:space="preserve">
<circle style="fill:#71E2EF;" cx="256" cy="256" r="256"/>
<path style="fill:#38C6D9;" d="M215.776,365.296l109.916,137.099c102.031-28.803,178.179-119.274,185.682-228.616L361.055,105.251
	L215.776,365.296z"/>
<rect x="213.333" y="292.219" style="fill:#FCD088;" width="85.333" height="93.522"/>
<rect x="255.431" y="292.219" style="fill:#DDAB62;" width="43.236" height="93.522"/>
<path style="fill:#FFEDB5;" d="M347.531,205.44c0.459-4.244,0.698-8.428,0.698-12.509c0-53.974-41.293-97.728-92.229-97.728
	s-92.229,43.753-92.229,97.728c0,4.08,0.24,8.264,0.698,12.509c-8.945,2.326-13.202,16.087-9.506,30.817
	c3.708,14.776,14.014,24.921,23.018,22.661c0.821-0.205,1.586-0.538,2.326-0.927c16.667,33.452,44.351,60.594,75.693,60.594
	s59.027-27.139,75.693-60.594c0.74,0.39,1.505,0.722,2.326,0.927c9.004,2.26,19.309-7.885,23.018-22.661
	C360.732,221.527,356.476,207.763,347.531,205.44z"/>
<path style="fill:#E8CF89;" d="M347.531,205.44c0.459-4.244,0.698-8.428,0.698-12.509c0-53.974-41.293-97.728-92.229-97.728
	c-0.193,0-0.381,0.014-0.574,0.016v223.349c0.191,0.002,0.381,0.016,0.574,0.016c31.342,0,59.027-27.139,75.693-60.592
	c0.74,0.39,1.505,0.721,2.326,0.927c9.004,2.26,19.309-7.885,23.018-22.661C360.732,221.527,356.476,207.763,347.531,205.44z"/>
<path style="fill:#6D4711;" d="M161.127,181.119c0,0,1.724,24.442,6.034,39.253l8.045-0.371c0,0-2.012-19.997,14.941-40.365
	S161.127,181.119,161.127,181.119z"/>
<path style="fill:#FFFFFF;" d="M378.397,140.802c0,31.194-54.936,42.894-122.534,42.894s-122.261-11.7-122.261-42.894
	S188.402,59.864,256,59.864S378.397,109.608,378.397,140.802z"/>
<path style="fill:#D3D3D3;" d="M256,59.864c-0.193,0-0.381,0.012-0.574,0.014v123.816c0.147,0,0.291,0.002,0.438,0.002
	c67.598,0,122.533-11.702,122.533-42.894C378.397,109.608,323.6,59.864,256,59.864z"/>
<path style="fill:#51310B;" d="M350.873,181.119c0,0-1.724,24.442-6.034,39.253l-8.045-0.371c0,0,2.012-19.997-14.941-40.365
	S350.873,181.119,350.873,181.119z"/>
<path style="fill:#2B3344;" d="M256,210.161c37.505,0,71.494-9.485,96.308-24.855c1.898-1.176,1.076-4.099-1.157-18.041H160.849
	c-2.232,13.941-3.055,16.865-1.157,18.041C184.508,200.676,218.495,210.161,256,210.161z"/>
<path style="fill:#1E2530;" d="M351.151,167.265h-95.725v42.887c0.193,0,0.381,0.009,0.574,0.009
	c37.505,0,71.494-9.485,96.308-24.855C354.206,184.13,353.383,181.207,351.151,167.265z"/>
<path style="fill:#6D4711;" d="M273.984,270.6c-12.045-5.847-15.736-3.277-17.984-0.398c-2.248-2.879-5.939-5.449-17.984,0.398
	c-12.317,5.98-28.562-0.912-28.562-0.912s8.675,12.622,29.915,11.047c9.099-0.674,14.686-3.463,16.631-6.296
	c1.945,2.832,7.532,5.622,16.631,6.296c21.242,1.574,29.915-11.047,29.915-11.047S286.303,276.58,273.984,270.6z"/>
<path style="fill:#51310B;" d="M273.984,270.6c-12.045-5.847-15.736-3.277-17.984-0.398c-0.179-0.229-0.372-0.455-0.574-0.677v5.589
	c0.202-0.224,0.419-0.448,0.574-0.674c1.945,2.832,7.532,5.622,16.631,6.296c21.242,1.576,29.915-11.047,29.915-11.047
	S286.303,276.58,273.984,270.6z"/>
<path style="fill:#494948;" d="M352.908,158.756c-18.815-2.626-37.709-4.461-56.632-5.549c-2.174-9.082-19.373-16.155-40.276-16.155
	c-20.902,0-38.102,7.073-40.276,16.155c-18.923,1.09-37.817,2.924-56.632,5.549c-2.189,0.305-3.715,2.339-3.41,4.529
	c0.938,6.728,1.874,13.455,2.812,20.183c0.203,1.46,1.552,2.472,3.013,2.265c62.831-8.882,126.564-8.863,189.392,0.057
	c1.236,0.176,2.379-0.681,2.551-1.919c0.957-6.863,1.912-13.726,2.869-20.589C356.624,161.096,355.097,159.061,352.908,158.756z"/>
<path style="fill:#353535;" d="M352.908,158.756c-18.815-2.626-37.709-4.461-56.632-5.549c-2.174-9.082-19.373-16.155-40.276-16.155
	c-0.193,0-0.381,0.01-0.574,0.012v42.031c31.899-0.028,63.802,2.201,95.472,6.697c1.236,0.176,2.379-0.681,2.551-1.919
	c0.957-6.863,1.912-13.726,2.869-20.589C356.624,161.096,355.097,159.061,352.908,158.756z"/>
<path style="fill:#FFC61B;" d="M281.859,153.105h-19.78c-1.053-4.315-3.375-7.32-6.078-7.32c-2.703,0-5.025,3.005-6.079,7.32h-19.78
	v5.251h5.092v4.296h6.206v4.296h9.756c1.215,2.351,2.917,3.818,4.805,3.818c1.888,0,3.589-1.469,4.805-3.818h9.757v-4.296h6.206
	v-4.296h5.092v-5.251H281.859z"/>
<path style="fill:#D48B07;" d="M262.079,153.105c-1.053-4.315-3.375-7.32-6.078-7.32c-0.195,0-0.383,0.048-0.574,0.079v24.848
	c0.19,0.031,0.381,0.055,0.574,0.055c1.888,0,3.589-1.469,4.805-3.818h9.757v-4.296h6.206v-4.296h5.092v-5.251h-19.782V153.105z"/>
<path style="fill:#E0E2E2;" d="M356.49,364.391l-43.946-12.235l-8.289-11.593c-1.488-2.17-4.299-2.988-6.718-1.953L256,356.504
	l-41.289-17.877c-2.401-1.046-5.206-0.26-6.713,1.881l-8.311,11.648l-44.247,11.804c-22.883,4.577-39.938,21.854-39.938,45.19
	v60.276c40.262,26.719,88.557,42.294,140.498,42.294c43.898,0,85.199-11.117,121.242-30.689c6.603-4.087,13.028-8.268,19.256-12.438
	v-59.445C396.498,385.814,379.373,368.968,356.49,364.391z"/>
<path style="fill:#C6C6C6;" d="M356.49,364.391l-43.946-12.235l-8.289-11.593c-1.486-2.17-4.299-2.988-6.718-1.953L256,356.504
	l-0.574-0.248V511.71c0.191,0,0.381,0.01,0.574,0.01c43.898,0,85.199-11.117,121.242-30.689c6.603-4.089,13.028-8.268,19.256-12.438
	v-59.445C396.498,385.814,379.373,368.968,356.49,364.391z"/>
<path style="fill:#FFFFFF;" d="M300.408,401.689L256,357.421l-44.408,44.268l-11.905-49.533l-14.364,6.273l11.597,146.382
	c18.961,4.51,38.74,6.911,59.08,6.911c25.357,0,49.84-3.727,72.952-10.633l-2.282-142.193l-14.126-6.74L300.408,401.689z"/>
<path style="fill:#D3D3D3;" d="M328.952,501.089l-2.282-142.193l-14.126-6.74l-12.136,49.533L256,357.421l-0.574,0.572v153.722
	c0.191,0,0.381,0.009,0.574,0.009C281.357,511.722,305.84,507.995,328.952,501.089z"/>
<path style="fill:#273B7A;" d="M237.323,375.513l10.488,13.478v101.604c2.72,0.086,5.448,0.143,8.189,0.143
	c2.741,0,5.468-0.059,8.189-0.143V388.991l10.488-13.477L256,358.284L237.323,375.513z"/>
<path style="fill:#121149;" d="M256,358.284l-0.574,0.529v131.915c0.191,0,0.381,0.01,0.574,0.01c2.741,0,5.468-0.059,8.189-0.143
	V388.992l10.488-13.477L256,358.284z"/>
<g>
	<path style="fill:#535B68;" d="M357.764,361.951l-45.22-9.795l-56.467,127.378l-56.391-127.378l-45.451,9.795
		c-23.024,4.605-39.596,24.821-39.596,48.3v59.194C155.148,496.326,203.742,512,256.002,512c52.258,0,100.85-15.672,141.359-42.555
		V410.25C397.36,386.772,380.787,366.556,357.764,361.951z"/>
	<path style="fill:#535B68;" d="M357.764,361.951l-45.22-9.795l-56.467,127.378l-0.65-1.469v33.925c0.191,0,0.383,0.01,0.574,0.01
		c52.258,0,100.85-15.672,141.359-42.555V410.25C397.36,386.772,380.787,366.556,357.764,361.951z"/>
</g>
<path style="fill:#1E2530;" d="M312.544,352.156l13.074,18.249c1.727,2.312,1.357,5.568-0.843,7.433l-15.729,13.329
	c-2.844,2.41-2.489,6.897,0.696,8.832l11.598,7.042c3.062,1.858,3.534,6.113,0.955,8.599l-66.219,63.893L312.544,352.156z"/>
<g>
	<path style="fill:#2B3344;" d="M199.687,352.156l-13.074,18.249c-1.727,2.312-1.357,5.568,0.843,7.433l15.729,13.329
		c2.844,2.41,2.489,6.897-0.696,8.832l-11.598,7.042c-3.062,1.858-3.534,6.113-0.955,8.599l66.141,63.893L199.687,352.156z"/>
	<path style="fill:#2B3344;" d="M147.372,380.114l52.996-12.431c1.626-0.381,2.636-2.008,2.253-3.636l-2.819-12.012
		c-0.381-1.626-2.008-2.636-3.636-2.253l-52.996,12.431c-1.626,0.381-2.636,2.008-2.253,3.636l2.819,12.012
		C144.119,379.487,145.746,380.495,147.372,380.114z"/>
</g>
<g>
	<polygon style="fill:#FFC61B;" points="152.728,359.972 157.058,377.842 163.107,376.423 158.551,358.605 	"/>
	<polygon style="fill:#FFC61B;" points="164.826,357.133 169.72,374.872 175.842,373.436 170.861,355.718 	"/>
	<polygon style="fill:#FFC61B;" points="177.474,354.166 182.824,371.798 190.483,370.002 185.93,352.184 	"/>
</g>
<path style="fill:#2B3344;" d="M364.628,380.114l-52.996-12.431c-1.626-0.381-2.636-2.008-2.253-3.636l2.819-12.012
	c0.381-1.626,2.008-2.636,3.636-2.253l52.996,12.431c1.626,0.381,2.636,2.008,2.253,3.636l-2.819,12.012
	C367.882,379.487,366.254,380.495,364.628,380.114z"/>
<g>
	<polygon style="fill:#FFC61B;" points="359.272,359.972 354.942,377.842 348.893,376.423 353.449,358.605 	"/>
	<polygon style="fill:#FFC61B;" points="347.174,357.133 342.28,374.872 336.158,373.436 341.139,355.718 	"/>
	<polygon style="fill:#FFC61B;" points="334.526,354.166 329.176,371.798 321.517,370.002 326.07,352.184 	"/>
</g>
<g>
</g>
<g>
</g>
<g>
</g>
<g>
</g>
<g>
</g>
<g>
</g>
<g>
</g>
<g>
</g>
<g>
</g>
<g>
</g>
<g>
</g>
<g>
</g>
<g>
</g>
<g>
</g>
<g>
</g>
</svg>
