<?xml version="1.0" encoding="iso-8859-1"?>
<!-- Generator: Adobe Illustrator 19.0.0, SVG Export Plug-In . SVG Version: 6.00 Build 0)  -->
<svg version="1.1" id="Layer_1" xmlns="http://www.w3.org/2000/svg" xmlns:xlink="http://www.w3.org/1999/xlink" x="0px" y="0px"
	 viewBox="0 0 512 512" style="enable-background:new 0 0 512 512;" xml:space="preserve">
<circle style="fill:#FFC61B;" cx="256" cy="256" r="256"/>
<path style="fill:#D48B07;" d="M232.441,377.823l116.698,116.698c86.616-33.849,150.264-113.512,161.178-209.196L303.752,78.76
	L232.441,377.823z"/>
<rect x="213.333" y="292.219" style="fill:#FCD088;" width="85.333" height="104.296"/>
<rect x="255.431" y="292.219" style="fill:#DDAB62;" width="43.236" height="104.296"/>
<path style="fill:#FFAD9E;" d="M357.764,365.671l-45.22-9.044l-7.992-11.666c-1.496-2.184-4.327-3.007-6.759-1.965L256,390.494
	l-41.543-47.48c-2.415-1.053-5.239-0.262-6.754,1.893l-8.247,11.719l-45.22,9.044c-23.023,4.606-39.596,24.821-39.596,48.3v55.475
	C155.148,496.328,203.742,512,256,512s100.852-15.672,141.36-42.555V413.97C397.36,390.491,380.787,370.276,357.764,365.671z"/>
<path style="fill:#FF6262;" d="M357.764,365.671l-45.22-9.044l-7.992-11.666c-1.496-2.184-4.327-3.007-6.759-1.965L256,390.494
	l-0.574-0.657v122.151c0.191,0,0.381,0.01,0.574,0.01c52.258,0,100.852-15.672,141.36-42.555v-55.475
	C397.36,390.491,380.787,370.276,357.764,365.671z"/>
<path style="fill:#FFEDB5;" d="M347.531,205.44c0.459-4.244,0.698-8.428,0.698-12.509c0-53.974-41.293-97.728-92.229-97.728
	s-92.229,43.754-92.229,97.728c0,4.08,0.24,8.264,0.698,12.509c-8.945,2.326-13.202,16.087-9.506,30.817
	c3.708,14.776,14.014,24.921,23.018,22.661c0.821-0.205,1.586-0.538,2.326-0.927c16.667,33.452,44.351,60.594,75.693,60.594
	s59.027-27.139,75.693-60.594c0.74,0.39,1.505,0.722,2.326,0.927c9.004,2.26,19.309-7.885,23.018-22.661
	C360.734,221.527,356.478,207.763,347.531,205.44z"/>
<path style="fill:#E8CF89;" d="M347.531,205.44c0.459-4.244,0.698-8.428,0.698-12.509c0-53.974-41.293-97.728-92.229-97.728
	c-0.193,0-0.381,0.014-0.574,0.016v223.349c0.191,0.002,0.383,0.016,0.574,0.016c31.342,0,59.027-27.139,75.693-60.594
	c0.74,0.39,1.505,0.722,2.326,0.927c9.004,2.26,19.309-7.885,23.018-22.661C360.734,221.527,356.478,207.763,347.531,205.44z"/>
<g>
	<circle style="fill:#FFFFFF;" cx="256" cy="413.186" r="4.31"/>
	<circle style="fill:#FFFFFF;" cx="256" cy="430.994" r="4.31"/>
	<path style="fill:#FFFFFF;" d="M256,390.608l-40.262-51.053c-1.714-2.007-4.817-2.003-6.527,0.007l-15.56,18.292l33.57,53.713
		c2.796,4.472,9.266,4.596,12.229,0.233L256,390.608z"/>
</g>
<path style="fill:#E0E0E0;" d="M256,390.608l40.262-51.053c1.714-2.007,4.817-2.003,6.527,0.007l15.56,18.292l-33.57,53.713
	c-2.796,4.472-9.266,4.596-12.229,0.233L256,390.608z"/>
<path style="fill:#444444;" d="M295.684,200.416c-12.266,0-22.566,8.459-25.447,19.842h-28.472
	c-2.882-11.383-13.181-19.842-25.447-19.842c-10.85,0-20.183,6.611-24.188,16.015l-21.306-21.307c-1.684-1.684-4.411-1.684-6.094,0
	c-1.684,1.683-1.684,4.411,0,6.094l25.319,25.321c0,0.052-0.009,0.103-0.009,0.155c0,14.489,11.788,26.277,26.277,26.277
	c13.753,0,25.052-10.624,26.167-24.095h27.033c1.115,13.469,12.414,24.095,26.167,24.095c14.489,0,26.277-11.788,26.277-26.277
	S310.174,200.416,295.684,200.416z M216.317,244.352c-9.737,0-17.658-7.921-17.658-17.658c0-9.737,7.921-17.658,17.658-17.658
	c9.737,0,17.658,7.921,17.658,17.658C233.975,236.43,226.054,244.352,216.317,244.352z M295.684,244.352
	c-9.737,0-17.658-7.921-17.658-17.658c0-9.737,7.921-17.658,17.658-17.658c9.737,0,17.658,7.921,17.658,17.658
	C313.342,236.43,305.421,244.352,295.684,244.352z"/>
<path style="fill:#333333;" d="M295.684,200.416c-12.266,0-22.566,8.459-25.447,19.842h-14.81v8.62h14.091
	c1.115,13.469,12.414,24.095,26.167,24.095c14.489,0,26.277-11.788,26.277-26.277S310.174,200.416,295.684,200.416z
	 M295.684,244.352c-9.737,0-17.658-7.921-17.658-17.658c0-9.737,7.921-17.658,17.658-17.658c9.737,0,17.658,7.921,17.658,17.658
	C313.342,236.43,305.421,244.352,295.684,244.352z"/>
<path style="fill:#444444;" d="M318.185,228.524c-1.103,0-2.205-0.421-3.048-1.262c-1.684-1.683-1.684-4.411,0-6.094l26.041-26.043
	c1.684-1.684,4.411-1.684,6.094,0c1.684,1.683,1.684,4.411,0,6.094l-26.041,26.043C320.39,228.102,319.286,228.524,318.185,228.524z
	"/>
<path style="fill:#494948;" d="M350.817,144.52c-12.495-20.396-29.091-38.253-49.652-48.909c2.367-3.35,3.681-7.011,3.681-10.854
	c0-15.869-22.254-28.732-49.705-28.732s-49.705,12.864-49.705,28.732c0,4.277,1.629,8.332,4.529,11.979
	c-0.507,0.229-1.003,0.428-1.512,0.664c-66.801,31.03-57.894,129.724-53.872,119.38c4.022-10.343,9.892-11.342,9.892-11.342
	c34.887-16.084,56.477-50.288,56.477-50.288s119.524,22.699,102.285,154.864C323.234,310.015,398.688,222.653,350.817,144.52z"/>
<path style="fill:#333333;" d="M350.817,144.52c-12.495-20.396-29.091-38.253-49.652-48.909c2.367-3.35,3.681-7.011,3.681-10.854
	c0-15.812-22.1-28.638-49.419-28.727v111.976c33.823,17.648,78.845,57.392,67.806,142.008
	C323.234,310.015,398.688,222.653,350.817,144.52z"/>
<g>
</g>
<g>
</g>
<g>
</g>
<g>
</g>
<g>
</g>
<g>
</g>
<g>
</g>
<g>
</g>
<g>
</g>
<g>
</g>
<g>
</g>
<g>
</g>
<g>
</g>
<g>
</g>
<g>
</g>
</svg>
